<svg xmlns="http://www.w3.org/2000/svg" viewBox="0 0 168 147.7"><defs><style>.cls-1{fill:#fff;}</style></defs><title>supportAsset 1</title><g id="Layer_2" data-name="Layer 2"><g id="Capa_1" data-name="Capa 1"><path class="cls-1" d="M153.23,39.41H142.92C134.16,18.59,114.85,3.46,92.62.57A63.83,63.83,0,0,0,34.79,23.18,64.59,64.59,0,0,0,24.9,39.41H14.77A14.79,14.79,0,0,0,0,54.18V73.87A14.78,14.78,0,0,0,14.77,88.63H35l-2.12-6.45c-6.15-18.81-2.69-38,9.51-52.71A54.08,54.08,0,0,1,135.07,46l0,.11a42.76,42.76,0,0,1,2.3,9A54.14,54.14,0,0,1,135,82l0,.06A54,54,0,0,1,84.1,118.16a14.77,14.77,0,1,0,14.67,14.77v-6.64a63.88,63.88,0,0,0,44.09-37.66h10.37A14.78,14.78,0,0,0,168,73.87V54.18A14.79,14.79,0,0,0,153.23,39.41Z"/><path class="cls-1" d="M39.7,98.48v9.84H84A44.29,44.29,0,1,0,49.16,91.39a9.77,9.77,0,0,1-9.46,7.09ZM98.77,59.1h9.84V69H98.77Zm-19.69,0h9.84V69H79.08Zm-19.69,0h9.84V69H59.39Z"/></g></g></svg>